REM Generated by IcecastMetadataRecorder
REM 2020-07-29T21:16:11.222Z
TITLE "isics-all"
FILE "isics-all.mp3" WAVE
  TRACK 1 AUDIO
    TITLE "2020-07-29T21:21:00.342Z TO:P:24605 [14002] Dallas County Law 1, Region 4 Interoperability Tac 42 FROM:2559982"
    INDEX 01 04:49:09
  TRACK 2 AUDIO
    TITLE "2020-07-29T21:21:08.726Z TO:P:24605 [14002] Dallas County Law 1, Region 4 Interoperability Tac 42 FROM:UNKNOWN"
    INDEX 01 04:57:37
  TRACK 3 AUDIO
    TITLE "2020-07-29T21:21:10.134Z TO:177 Polk County - Westcom Fire 2 FROM:1911"
    INDEX 01 04:58:67
  TRACK 4 AUDIO
    TITLE "2020-07-29T21:21:13.622Z TO:24605 Dallas County Law 1 FROM:2559982"
    INDEX 01 05:02:30
  TRACK 5 AUDIO
    TITLE "2020-07-29T21:21:24.822Z TO:177 Polk County - Westcom Fire 2 FROM:UNKNOWN"
    INDEX 01 05:13:44
  TRACK 6 AUDIO
    TITLE "2020-07-29T21:21:26.934Z TO:24631 Dallas County Fire/EMS Operations FROM:UNKNOWN"
    INDEX 01 05:15:53
  TRACK 7 AUDIO
    TITLE "2020-07-29T21:21:36.022Z TO:24631 Dallas County Fire/EMS Operations FROM:UNKNOWN"
    INDEX 01 05:24:59
  TRACK 8 AUDIO
    TITLE "2020-07-29T21:21:38.134Z TO:177 Polk County - Westcom Fire 2 FROM:1911"
    INDEX 01 05:26:67
  TRACK 9 AUDIO
    TITLE "2020-07-29T21:21:44.438Z TO:177 Polk County - Westcom Fire 2 FROM:1007"
    INDEX 01 05:33:16
  TRACK 10 AUDIO
    TITLE "END"
    INDEX 01 05:36:52